<svg width="646" height="852" viewBox="0 0 646 852" fill="none" xmlns="http://www.w3.org/2000/svg">
<path fill-rule="evenodd" clip-rule="evenodd" d="M411.27 8.53919C399.418 -3.03816 380.424 -2.81514 368.847 9.03735L8.53919 377.907C-3.03816 389.76 -2.81514 408.754 9.03735 420.331L95.7538 505.034C107.606 516.612 126.6 516.389 138.177 504.536L188.384 453.137C190.649 450.818 191.624 447.548 191.167 444.339C190.286 438.15 189.83 431.823 189.83 425.39C189.83 351.798 249.488 292.14 323.08 292.14C328.441 292.14 333.728 292.456 338.924 293.072C342.143 293.453 345.388 292.401 347.653 290.083L498.485 135.666C510.062 123.814 509.839 104.82 497.987 93.2427L411.27 8.53919Z" fill="white"/>
<path fill-rule="evenodd" clip-rule="evenodd" d="M323.08 558.641C396.672 558.641 456.33 498.982 456.33 425.39C456.33 419.098 455.894 412.907 455.05 406.847C454.605 403.648 455.582 400.392 457.839 398.082L507.398 347.345C518.975 335.492 537.969 335.269 549.821 346.847L636.538 431.55C648.39 443.128 648.613 462.121 637.036 473.974L276.729 842.844C265.151 854.696 246.158 854.919 234.305 843.342L147.589 758.638C135.736 747.061 135.513 728.067 147.09 716.215L298.947 560.75C301.204 558.439 304.435 557.386 307.643 557.756C312.708 558.34 317.859 558.641 323.08 558.641Z" fill="white"/>
<circle cx="322.753" cy="426.155" r="79.9503" fill="white"/>
</svg>
